<?xml version="1.0" encoding="UTF-8" standalone="no"?>
<svg
   xmlns:dc="http://purl.org/dc/elements/1.1/"
   xmlns:cc="http://creativecommons.org/ns#"
   xmlns:rdf="http://www.w3.org/1999/02/22-rdf-syntax-ns#"
   xmlns:svg="http://www.w3.org/2000/svg"
   xmlns="http://www.w3.org/2000/svg"
   xmlns:sodipodi="http://sodipodi.sourceforge.net/DTD/sodipodi-0.dtd"
   xmlns:inkscape="http://www.inkscape.org/namespaces/inkscape"
   id="svg"
   fill="#000"
   stroke="#000"
   width="200"
   height="200"
   version="1.1"
   viewBox="144 144 512 512"
   transform="rotate(270)"
   sodipodi:docname="co.svg"
   inkscape:version="1.0.1 (3bc2e813f5, 2020-09-07)">
  <metadata
     id="metadata42">
    <rdf:RDF>
      <cc:Work
         rdf:about="">
        <dc:format>image/svg+xml</dc:format>
        <dc:type
           rdf:resource="http://purl.org/dc/dcmitype/StillImage" />
        <dc:title></dc:title>
      </cc:Work>
    </rdf:RDF>
  </metadata>
  <defs
     id="defs40" />
  <sodipodi:namedview
     pagecolor="#ffffff"
     bordercolor="#666666"
     borderopacity="1"
     objecttolerance="10"
     gridtolerance="10"
     guidetolerance="10"
     inkscape:pageopacity="0"
     inkscape:pageshadow="2"
     inkscape:window-width="1366"
     inkscape:window-height="746"
     id="namedview38"
     showgrid="false"
     inkscape:zoom="1.3918395"
     inkscape:cx="44.877351"
     inkscape:cy="107.1977"
     inkscape:window-x="-8"
     inkscape:window-y="-8"
     inkscape:window-maximized="1"
     inkscape:current-layer="svg" />
  <g
     id="IconSvg_bgCarrier"
     stroke-width="0" />
  <g
     id="g884"
     transform="matrix(-1.0918068,0,0,1.0918068,815.09406,-41.102506)">
    <path
       d="m 484.08329,505.21864 c 16.2934,-16.54612 30.60522,-34.29473 42.43956,-52.81545 23.57848,-36.5224 37.3801,-74.85211 40.03832,-110.69038 0.34567,-4.0285 0.42545,-7.89075 0.42545,-11.66007 0,-1.62868 -0.0865,-3.17097 -0.17283,-4.79959 -0.34567,-13.37515 -2.39989,-25.80614 -6.08922,-37.21333 -0.25926,-0.85756 -0.51187,-1.80153 -0.85756,-2.65907 -0.6847,-2.06071 -1.54226,-4.02851 -2.39988,-6.00277 -0.59829,-1.36942 -1.11681,-2.74552 -1.80153,-4.11496 -0.77112,-1.62867 -1.62868,-3.17097 -2.48617,-4.79959 -0.85755,-1.54226 -1.71507,-3.17097 -2.57261,-4.62686 -0.85756,-1.36943 -1.71508,-2.74552 -2.65907,-4.02851 -1.03039,-1.54226 -2.14053,-3.08452 -3.25742,-4.62686 -0.94397,-1.20323 -1.97443,-2.39989 -2.91825,-3.60306 -0.6847,-0.85756 -1.45584,-1.71508 -2.22698,-2.48617 -0.0865,0 -0.0865,0 -0.0865,0.0865 -1.11681,0.42545 -2.48617,0.94397 -4.02851,1.54226 -0.34567,0.0865 -0.6847,0.25925 -1.03039,0.42545 -1.28301,0.51186 -2.74552,1.1168 -4.20141,1.71507 -0.59829,0.25926 -1.28301,0.51187 -1.88798,0.77112 -1.45584,0.59829 -2.99807,1.28301 -4.54705,1.97444 -0.6847,0.34567 -1.36942,0.59828 -2.14053,0.94397 -2.31343,1.03039 -4.71314,2.14053 -7.37221,3.3437 -47.32544,21.86477 -126.72476,69.36209 -126.72476,142.32689 v 0.34567 c 0,1.54226 -0.17283,3.08452 -0.17283,4.62686 -0.0865,1.28301 -0.0865,2.65907 -0.17284,3.94206 -6.51467,88.82561 -113.42857,139.06964 -154.49818,155.18912 58.9045,45.86869 168.99074,19.37843 250.01187,-61.55762 z"
       id="path24"
       style="stroke-width:1.7018" />
    <path
       d="m 289.10772,523.22372 c 1.54226,-0.94397 3.08452,-1.97443 4.54705,-2.91825 1.283,-0.85756 2.48616,-1.62868 3.76915,-2.48617 0.85756,-0.59828 1.71508,-1.11681 2.57262,-1.71507 1.88798,-1.28301 3.8556,-2.65907 5.74358,-4.02851 0.17284,-0.17284 0.42545,-0.25925 0.59829,-0.42545 34.89376,-25.54747 66.53028,-61.47764 66.53028,-107.51311 v -0.34567 c 0,-80.84926 84.71065,-131.9493 135.20655,-155.2691 2.14053,-0.94397 4.11496,-1.88798 6.08922,-2.74552 0.6847,-0.34567 1.36942,-0.59829 2.06071,-0.94397 1.20323,-0.51187 2.39989,-1.03039 3.51661,-1.54226 0.77112,-0.34567 1.45584,-0.59829 2.22698,-0.94398 0.94397,-0.42545 1.88798,-0.77112 2.74552,-1.1168 0.6847,-0.25926 1.36942,-0.59829 2.06071,-0.85756 0.25925,-0.0864 0.59829,-0.25925 0.85756,-0.34567 -0.51187,-0.42545 -1.03039,-0.77112 -1.54226,-1.11681 -2.57262,-1.88798 -5.23169,-3.68951 -7.97057,-5.31813 -0.94397,-0.59829 -1.88798,-1.20323 -2.91825,-1.71508 -3.5166,-1.97443 -7.19948,-3.8556 -10.97527,-5.40459 -62.93267,-26.06481 -156.12681,4.7996 -226.52699,75.10568 -84.36519,84.45197 -109.31362,197.88565 -57.01721,255.5087 11.31427,-4.20141 38.40969,-15.17668 66.61708,-32.66611 0.69135,-0.50523 1.20322,-0.84425 1.80153,-1.18993 z"
       id="path28"
       style="stroke-width:1.7018" />
  </g>
</svg>
