<?xml version="1.0" encoding="UTF-8" standalone="no"?>
<svg
   xmlns:ns="&amp;#38;ns_sfw;"
   xmlns:dc="http://purl.org/dc/elements/1.1/"
   xmlns:cc="http://creativecommons.org/ns#"
   xmlns:rdf="http://www.w3.org/1999/02/22-rdf-syntax-ns#"
   xmlns:svg="http://www.w3.org/2000/svg"
   xmlns="http://www.w3.org/2000/svg"
   xmlns:sodipodi="http://sodipodi.sourceforge.net/DTD/sodipodi-0.dtd"
   xmlns:inkscape="http://www.inkscape.org/namespaces/inkscape"
   version="1.1"
   x="0px"
   y="0px"
   viewBox="0 0 200 180"
   xml:space="preserve"
   id="svg38"
   sodipodi:docname="hm.svg"
   width="200"
   height="180"
   inkscape:version="1.0.1 (3bc2e813f5, 2020-09-07)"><defs
   id="defs42">
		
		
		
		
		
		
		
		
		
		
		
		
		
		
	
	
</defs><sodipodi:namedview
   pagecolor="#ffffff"
   bordercolor="#666666"
   borderopacity="1"
   objecttolerance="10"
   gridtolerance="10"
   guidetolerance="10"
   inkscape:pageopacity="0"
   inkscape:pageshadow="2"
   inkscape:window-width="1366"
   inkscape:window-height="746"
   id="namedview40"
   showgrid="false"
   inkscape:zoom="2.7243713"
   inkscape:cx="96.416996"
   inkscape:cy="100.2023"
   inkscape:window-x="-8"
   inkscape:window-y="-8"
   inkscape:window-maximized="1"
   inkscape:current-layer="svg38"
   inkscape:document-rotation="0" />
<style
   type="text/css"
   id="style2">
	.st0{fill-rule:evenodd;clip-rule:evenodd;fill:#E19260;}
	.st1{fill-rule:evenodd;clip-rule:evenodd;fill:#F5908D;}
	.st2{fill-rule:evenodd;clip-rule:evenodd;}
	.st3{fill-rule:evenodd;clip-rule:evenodd;fill:#FFFFFF;}
</style>
<metadata
   id="metadata4">
	<ns:sfw>
		<ns:slices />
		<ns:sliceSourceBounds
   bottomLeftOrigin="true"
   height="182.2"
   width="343.5"
   x="468.4"
   y="-473.5" />
	</ns:sfw>
<rdf:RDF><cc:Work
     rdf:about=""><dc:format>image/svg+xml</dc:format><dc:type
       rdf:resource="http://purl.org/dc/dcmitype/StillImage" /><dc:title /></cc:Work></rdf:RDF></metadata>
<g
   id="レイヤー_2">
</g>

<g
   id="g995"
   transform="translate(4.0157062,-4.8821256)"><path
     style="fill:#212529;fill-opacity:1;stroke:none;stroke-width:1px;stroke-linecap:butt;stroke-linejoin:miter;stroke-opacity:1"
     d="m 69.770454,119.87096 -5.091045,-6.01669 0.694233,-7.05804 3.818284,-9.719264 5.322456,2.314111 2.545522,3.818283 1.272761,4.51252 0.115706,1.96699 -4.546258,-1.7403 -0.891904,6.48423 z"
     id="path948" /><path
     class="st0"
     d="m 103.1726,32.517327 c -11.488538,-7.965384 -25.977107,5.810724 -26.97278,15.614274 -2.144527,21.138905 17.692344,35.920822 35.84423,42.584172 13.78624,5.05495 34.15924,13.096927 46.72004,1.76157 17.38599,-15.777585 -6.05063,-40.669411 -20.98572,-47.485941 z"
     id="path7"
     style="fill:#5d3623;fill-opacity:1;stroke-width:0.765902"
     sodipodi:nodetypes="cccccc" /><path
     class="st0"
     d="M 52.166381,46.026117 C 49.302239,46.92826 24.314518,71.203632 32.007255,75.244544 48.703926,86.656493 79.263429,52.114293 63.792202,40.089627 Z"
     id="path9"
     style="fill:#5d3623;fill-opacity:1;stroke-width:0.765902"
     sodipodi:nodetypes="cccc" /><path
     class="st0"
     d="m 168.1081,132.38086 c -1.83816,3.44656 -7.12289,4.05928 -10.33968,1.76157 -7.12289,-5.05495 -2.52748,-19.76028 1.37862,-25.1216 15.16487,-21.138897 23.28343,16.92645 9.80355,18.8412 z"
     id="path11"
     style="fill:#5d3623;fill-opacity:1;stroke-width:0.765902" /><path
     class="st1"
     d="m 172.71509,56.692373 c -4.08534,0.799886 -18.7283,0.859609 -20.00163,1.77891 -0.30636,1.302034 0.38295,2.680658 1.76158,3.063609 0.38295,0.07659 0.7659,0.229771 1.22544,0.306361 1.22545,0.765902 2.75725,1.148854 3.9061,1.302034 0.91909,0.15318 2.2204,0.994233 2.9863,0.764463 1.53181,0.07659 2.0542,-0.33671 3.27965,-0.872842 3.1402,-0.919082 8.45095,-2.666203 6.84256,-6.342535 z"
     id="path13"
     style="fill:#f5b7a3;fill-opacity:1;stroke-width:0.765902"
     sodipodi:nodetypes="cccccccc" /><path
     class="st1"
     d="m 50.08255,44.991402 c -1.455215,-0.995673 -4.518824,-3.1402 -6.356989,-3.369971 -0.995673,-0.07659 -1.914756,0.07659 -2.757249,0.382951 h -0.229771 c -1.531804,0 -2.987019,0.612722 -4.442233,0.919083 -1.531805,0.306361 -0.630776,3.200176 0.211716,4.50221 1.225444,1.914756 5.234885,3.29338 7.609182,3.446561 1.914756,0.15318 1.964597,-1.148134 1.752881,-2.587454 0.689312,0.536132 0.320815,0.963165 0,0 2.604068,1.761575 6.893121,-1.531804 4.212463,-3.29338 z"
     id="path15"
     style="fill:#f5b7a3;fill-opacity:1;stroke-width:0.765902"
     sodipodi:nodetypes="cccscccccc" /><path
     class="st2"
     d="m 162.21065,67.585521 c 7.35267,8.424925 12.25444,17.922112 15.39464,28.414972 2.83384,9.497187 2.98702,19.224147 2.60407,28.951107 -0.0766,2.06794 0.61272,2.60407 2.45089,2.68066 1.30203,0.0766 2.68065,0.22977 3.9061,0.61272 1.60839,0.53613 2.75725,1.53181 2.75725,3.44656 0,1.91476 -1.14886,2.98702 -2.83384,3.36997 -2.75725,0.53614 -5.59109,0.76591 -8.6547,1.14886 -3.1402,6.81653 -8.19515,12.79057 -13.70965,18.38165 -4.59542,4.7486 -9.95673,7.42926 -16.69667,8.04198 -6.51017,0.61272 -12.94375,2.52748 -19.45392,2.91043 -13.78624,0.7659 -27.64908,1.07226 -41.435319,1.07226 -12.254437,0 -24.508874,-0.45954 -36.763312,-0.99567 -6.969711,-0.30636 -13.633062,-2.14453 -19.76028,-5.74427 -0.612722,-0.38295 -1.531805,-0.53613 -2.297707,-0.38295 -4.442234,0.7659 -6.969712,-0.68931 -8.884467,-4.67201 -1.838166,-3.75292 -4.059283,-7.27607 -6.203809,-10.87581 -1.455215,-2.45089 -2.450888,-4.90177 -1.761576,-7.8122 0.536132,-2.45089 1.684985,-3.06361 3.982692,-1.83817 1.072264,0.53613 2.067937,1.37863 2.98702,2.22112 1.608394,1.30203 3.140199,2.75725 4.748594,4.13587 0.229771,-1.68498 0.612722,-3.75292 0.919083,-5.82086 1.148853,-8.19515 4.365643,-15.31804 10.646042,-20.90913 1.684986,-1.53181 1.761576,-2.68066 0.229771,-4.28905 -4.212463,-4.28906 -7.352662,-9.11424 -8.195155,-15.318047 -1.838166,-12.637389 1.225444,-23.896154 8.731287,-34.159245 3.829511,-5.131546 8.118565,-9.72696 13.25011,-13.556472 0.459542,-0.30636 0.842493,-0.689312 1.914756,-1.608394 -3.676331,-0.459542 -6.66335,-1.148854 -9.650369,-1.148854 -2.374298,0 -2.680659,0.995673 -1.302034,2.910429 0.459541,0.612722 0.842492,1.378624 1.225443,2.221117 -2.297707,0.612722 -3.599741,-0.306361 -4.672004,-1.914756 -1.455214,-2.221117 -1.608395,-4.518824 -0.382951,-6.816531 2.297707,-4.289053 9.573779,-7.659023 14.705325,-6.43358 4.135872,0.995673 8.118565,2.757249 12.254437,4.059283 0.689312,0.22977 1.761576,0 2.450888,-0.306361 9.650369,-4.059283 19.530509,-7.352663 30.023371,-8.041975 5.131546,-0.382951 10.339684,0.229771 15.471224,0.765903 9.34401,0.919082 18.38166,3.063609 26.80659,7.429252 3.67633,1.914756 6.96971,4.442234 10.79922,6.969712 3.98269,-1.684986 8.88447,-2.067937 13.78624,-1.991346 7.73561,0.15318 13.02034,5.591087 12.86716,13.25011 -0.0766,3.906102 -2.14453,6.58676 -5.36132,8.424926 -2.14452,1.148853 -4.44223,2.067936 -6.89312,3.21679 z M 80.335692,146.09051 c 1.072264,1.5318 1.914756,2.52748 2.604068,3.59974 2.374298,3.52315 5.131546,6.81653 6.969712,10.56945 0.995673,1.99135 1.838165,2.91043 3.906102,2.91043 15.777586,0.22977 31.478586,-0.15318 47.102996,-2.60407 3.44656,-0.53613 6.96971,-0.84249 10.26309,-1.76157 5.66768,-1.68499 9.65037,-5.74427 13.47988,-10.03332 5.28473,-5.97404 10.49286,-12.02467 11.56513,-20.29642 2.75724,-21.44526 -2.22112,-40.975767 -15.08828,-58.514932 -1.07226,-1.455215 -1.76158,-3.21679 -2.83384,-5.284726 -0.22977,-0.07659 -1.07226,-0.306361 -1.99135,-0.612722 -2.22111,-0.765903 -4.44223,-1.838166 -4.36564,-4.518824 0.0766,-2.757248 2.60407,-3.29338 4.7486,-3.982692 0.0766,0 0.15318,0 0.22977,0 4.74859,-0.842493 9.57378,-1.455215 13.93942,1.455214 0.84249,-4.289053 -0.45954,-7.888794 -3.9061,-9.573779 -6.2804,-3.1402 -12.5608,-2.374297 -18.61143,0.765902 -1.68498,0.842493 -2.3743,0.536132 -3.59974,-0.689312 -2.22112,-2.221117 -4.36564,-4.672004 -7.0463,-6.203809 -6.58676,-3.982692 -13.86283,-6.51017 -21.52186,-7.659023 -7.35266,-1.148854 -14.8585,-1.914756 -22.287756,-2.680658 -1.148854,-0.153181 -2.297707,0.15318 -3.446561,0.382951 -11.028993,2.067936 -21.368675,6.280399 -31.325405,11.335355 -10.722633,5.437906 -19.147559,13.3267 -25.198187,23.896153 -4.289053,7.429252 -5.744268,15.318046 -5.284726,23.742975 0.382951,6.89312 3.140199,12.484207 8.041974,17.232797 0.153181,0.15318 0.306361,0.38295 0.459541,0.61272 2.604068,3.44656 2.450888,4.44224 -0.459541,7.73562 -2.450887,2.75724 -5.054955,5.66767 -6.66335,8.88446 -3.676331,7.19948 -4.289053,15.16487 -4.059283,23.13025 0.153181,3.67633 1.914756,6.43358 4.978366,8.42493 5.591087,3.67633 11.871486,5.36132 18.381656,5.66768 12.101257,0.61272 24.125923,0.7659 36.22718,1.07226 0.459542,0 0.995673,-0.0766 1.914756,-0.22977 -0.612722,-1.45522 -0.919083,-2.83384 -1.684985,-3.98269 -2.450887,-3.52315 -5.131546,-6.73994 -7.429253,-10.33969 -0.689312,-1.07226 -0.919082,-2.91042 -0.459541,-4.05928 0.306361,-0.84249 2.297707,-1.60839 3.29338,-1.37862 4.059282,0.7659 8.041975,1.76157 12.024667,2.91043 1.225444,0.38295 1.991346,0.53613 3.063609,-0.38295 1.991346,-1.76158 4.059279,-3.44656 6.356989,-4.90178 10.79922,-6.66335 22.59412,-7.88879 34.92515,-6.12722 1.07226,0.15318 1.99134,0.84249 3.44656,1.45522 -4.36565,0 -8.19516,-0.0766 -11.94808,0 -12.17785,0.15318 -22.82389,4.05928 -31.631765,12.63739 -1.608395,1.60839 -2.910429,1.68498 -4.748595,0.45954 -3.44656,-2.22112 -7.582433,-2.52748 -12.331028,-3.06361 z M 60.958363,39.093954 c 0,-0.229771 0,-0.536132 0,-0.765903 -4.825184,-0.765902 -9.726959,-1.761575 -14.552144,-2.144526 -3.36997,-0.306361 -7.505843,2.910429 -8.501516,5.820857 4.748594,-0.765902 9.420599,-0.842492 13.556471,2.221117 3.21679,-1.684985 6.35699,-3.36997 9.497189,-5.131545 z M 26.033217,157.27268 c -2.680659,-3.59974 -3.523151,-7.58243 -3.369971,-11.87148 0,-0.61273 0,-1.45522 -0.382951,-1.91476 -2.374297,-2.98702 -5.208136,-5.43791 -9.190828,-7.73561 0.306361,2.06793 0.07659,3.75292 0.765902,4.74859 3.906102,5.66768 5.897448,12.79057 12.177848,16.77326 z M 169.56332,59.620136 c -3.06361,-2.297707 -10.87582,-2.757248 -13.93943,-0.765902 -1.37862,0.919083 -0.7659,1.761575 0.22977,2.221117 1.6084,0.689312 3.21679,1.302034 4.90178,1.761575 3.44656,0.919083 6.51017,-0.229771 8.80788,-3.21679 z m 17.2328,72.224584 c 0,-0.30636 0.0766,-0.61272 0.0766,-0.99567 -2.29771,-0.45954 -4.59542,-0.99567 -7.0463,-1.45521 -0.30636,1.45521 -0.53614,2.52747 -0.8425,3.75292 2.83384,0 5.59109,0.45954 7.81221,-1.30204 z"
     id="path17"
     style="stroke-width:0.765902" /><path
     class="st2"
     d="m 74.514835,116.29691 c -0.995673,1.37862 -1.914756,2.68065 -2.757249,3.9061 -1.072263,1.60839 -2.450887,1.76157 -3.752921,0.45954 -1.531805,-1.45521 -2.833839,-3.1402 -4.442234,-4.97837 -0.306361,0.15318 -0.995673,0.53614 -1.684985,0.8425 -0.229771,-0.0766 -0.382951,-0.22977 -0.612722,-0.30636 0.536132,-1.76158 1.072263,-3.44656 1.761576,-5.82086 -1.991346,1.07226 -3.446561,1.99134 -5.054956,2.75725 -0.612722,0.30636 -1.378624,0.22977 -1.991346,0.30636 0.229771,-0.68931 0.229771,-1.68499 0.765902,-2.06794 1.684986,-1.14885 3.599741,-2.06793 5.361317,-3.1402 0.612722,-0.38295 1.378624,-0.91908 1.684985,-1.5318 1.378624,-3.29338 2.527478,-6.66335 3.906102,-9.956727 1.148853,-2.75725 2.757248,-3.1402 4.825185,-0.8425 4.672004,5.208137 5.361316,3.75293 7.199482,12.331027 2.067936,0 4.212462,-0.22977 6.356989,0.0766 1.838166,0.30636 4.135873,-0.38295 5.974038,2.06794 -6.050628,0 -11.565125,0 -17.003032,0 -0.15318,0.22977 -0.306361,0.38295 -0.459541,0.61272 1.761575,2.45089 3.599741,4.97837 5.591087,7.73561 -3.1402,0.76591 -4.059282,-1.37862 -5.667677,-2.45088 z m -5.820858,-15.77759 c -3.446561,6.05063 -4.059282,12.94375 -1.148854,15.54782 0.382952,-5.28473 0.765903,-10.64605 1.148854,-15.54782 z m 5.208136,7.42925 c 1.148853,0 2.067936,0 3.140199,0 -0.22977,-2.98702 -0.995673,-5.43791 -3.752921,-7.42925 0.229771,2.68066 0.382951,4.97836 0.612722,7.42925 z m -2.833839,-4.21246 c -0.229771,0 -0.382951,0 -0.612722,0 0,4.44223 0,8.88447 0,13.3267 0.229771,0 0.382951,0 0.612722,0 0,-4.44223 0,-8.88447 0,-13.3267 z"
     id="path23"
     style="stroke-width:0.765902" /><path
     class="st2"
     d="m 45.946677,57.858561 c -0.842492,-0.612722 -1.608395,-1.148854 -2.374297,-1.761576 0.07659,-0.30636 0.229771,-0.536131 0.306361,-0.842492 1.914756,0.15318 4.212463,1.455214 5.361316,-1.378624 -0.22977,-0.459542 -0.536131,-1.148854 -0.842492,-1.761576 0.229771,-0.22977 0.382951,-0.459541 0.459541,-0.459541 2.221117,1.378624 4.825185,0.919083 7.276073,1.455214 4.135872,0.842493 7.276072,6.203809 6.58676,10.722633 -0.689312,4.289053 -4.825185,7.582433 -9.037648,7.276072 C 46.406219,70.57254 43.4192,65.594174 45.946677,57.858561 Z"
     id="path25"
     style="stroke-width:0.765902" /><path
     class="st2"
     d="m 69.84283,75.167954 c 1.455215,-0.153181 2.833839,-0.229771 4.748595,-0.382951 -0.689312,0.919082 -1.148854,1.455214 -1.608395,2.144526 -1.761575,2.527478 -1.608395,4.365643 0.306361,6.66335 0.536132,0.612724 0.765902,1.455214 1.148853,2.144524 -0.22977,0.22977 -0.382951,0.45954 -0.612721,0.68932 -1.455215,-0.76591 -2.833839,-1.53181 -4.289054,-2.3743 0.07659,-0.0766 0.07659,-0.15318 0.153181,-0.22977 -0.07659,0 -0.153181,-0.0766 -0.229771,-0.0766 -1.072263,0.30636 -1.991346,2.83384 -3.21679,0.53613 -0.306361,-0.61272 1.608395,-2.144528 2.067937,-3.369972 0.765902,-1.838165 1.072263,-3.906102 1.531804,-5.744267 z"
     id="path27"
     style="stroke-width:0.765902" /><path
     class="st2"
     d="m 91.824228,49.203864 c 0.842492,0.995673 6.356989,4.442234 8.041974,4.978366 7.582438,2.450887 10.722628,12.177847 5.514498,17.385983 -2.60407,2.604068 -8.424927,3.063609 -12.560799,0.919083 -3.29338,-1.761576 -5.131546,-5.437907 -4.442234,-9.344009 0.229771,-1.455214 0.689312,-2.910429 1.072263,-4.289053 -1.148853,-1.072263 -2.221116,-2.144527 -3.29338,-3.1402 0.229771,-0.306361 0.382951,-0.536131 0.612722,-0.842492 0.919083,0.382951 1.761576,0.919083 2.757249,1.148853 0.689312,0.153181 1.684985,0.229771 2.221116,-0.15318 0.382952,-0.306361 0.306361,-1.378624 0.229771,-2.067937 -0.15318,-1.455214 -0.459541,-2.987019 -0.689312,-4.442233 0,-0.07659 0.229771,-0.153181 0.536132,-0.153181 z"
     id="path29"
     style="stroke-width:0.765902" /><path
     class="st3"
     d="m 96.343051,59.084005 c -0.22977,-0.536132 -0.919082,-0.995673 -1.531804,-1.148854 -0.689312,-0.15318 -1.302034,-0.07659 -1.914756,0.229771 -0.536132,0.306361 -0.919083,0.689312 -1.225444,1.072263 -0.07659,0.07659 -0.07659,0.153181 -0.15318,0.153181 0,0.07659 -0.07659,0.07659 -0.07659,0.15318 -0.459541,0.612722 -0.689312,1.531805 -0.459541,2.297707 0.15318,0.536132 0.459541,0.919083 0.842493,1.302034 0.919082,0.842493 2.144526,0.842493 3.140199,0.229771 0.306361,-0.229771 0.689312,-0.382951 0.995673,-0.689312 0.153181,-0.153181 0.306361,-0.382952 0.459542,-0.612722 0.306361,-0.536132 0.306361,-0.689312 0.382951,-1.378625 0.07659,-0.536131 -0.229771,-1.072263 -0.459542,-1.608394 z"
     id="path31"
     style="stroke-width:0.765902" /><path
     class="st3"
     d="m 52.916389,60.079678 c 0.536131,-0.765903 0.612722,-1.761576 0.07659,-2.604068 -0.306361,-0.536132 -0.842493,-0.995673 -1.531805,-1.148854 -0.612722,-0.15318 -1.455214,-0.15318 -1.914756,0.229771 0,0 0,0 0,0 -0.382951,0.15318 -0.765902,0.306361 -1.072263,0.612722 0,0 -0.07659,0.07659 -0.07659,0.07659 -0.153181,0.15318 -0.306361,0.306361 -0.382951,0.536132 0,0 0,0 0,0 -0.382951,0.536131 -0.459542,1.302034 -0.306361,1.991346 -0.07659,0.689312 0.15318,1.455214 0.689312,1.991346 0.919083,0.919083 2.604068,0.995673 3.523151,0 0.459541,-0.536132 0.612722,-0.842493 0.842492,-1.455215 0.07659,-0.07659 0.07659,-0.07659 0.153181,-0.22977 0,0 0,-0.07659 0,0 0,-0.07659 0,-0.07659 0,0 z"
     id="path33"
     style="stroke-width:0.765902" /><g
     id="g958"
     transform="matrix(-1,0,0,1,296.9733,-93.85491)"><path
       style="fill:#212529;fill-opacity:1;stroke:none;stroke-width:1px;stroke-linecap:butt;stroke-linejoin:miter;stroke-opacity:1"
       d="m 258.60202,260.07698 15.04172,-1.15705 -0.46282,-8.79363 -6.71093,-4.62822 -27.0751,0.23141 -8.56221,3.93399 8.79362,8.09939 z"
       id="path950" /><path
       class="st2"
       d="m 261.84008,261.22759 c -9.7,1.4 -17.5,-0.2 -25.1,-2.9 -4.2,-1.5 -7.7,-3.5 -8.4,-8.3 -0.1,-0.9 0.7,-2.6 1.5,-3 3.7,-1.5 7.4,-3.6 11.3,-3.8 8.2,-0.5 16.5,-0.6 24.6,0.3 8.2,0.8 10.3,8.5 10.8,14.9 0.1,0.9 -2,2.6 -3.2,2.7 -4.4,0.3 -8.7,0.1 -11.5,0.1 z m -27.7,-12.2 c 13.3,-0.9 25.9,2.4 38.1,7.5 -1.3,-6.3 -29.8,-12 -38.1,-7.5 z m 24.9,-2.6 c 3.8,1.5 7.5,3 11.9,4.7 -3.2,-4.8 -7.6,-4.8 -11.9,-4.7 z m -17.9,8 c -0.1,0.4 -0.2,0.8 -0.2,1.3 4.6,0.8 9.1,1.6 13.7,2.3 0.1,-0.3 0.1,-0.7 0.2,-1 -4.6,-0.9 -9.2,-1.7 -13.7,-2.6 z"
       id="path19" /></g><g
     id="g974"
     transform="translate(70.553827,-13.46297)"><path
       style="fill:#212529;fill-opacity:1;stroke:none;stroke-width:1px;stroke-linecap:butt;stroke-linejoin:miter;stroke-opacity:1"
       d="m -18.874265,180.92465 4.85963,-8.79362 19.90136,-0.23141 8.3308,7.86798 -12.03338,3.47116 z"
       id="path954" /><path
       class="st2"
       d="m -3.6206074,183.93565 c 5.7272647,-0.0818 11,-1 16.3000004,-2.2 4.9,-1.2 5.2,-3 1.6,-6.4 -4,-3.9 -8.7000004,-6.3 -14.30000038,-6 -6.00000002,0.3 -12.09999962,0.8 -18.09999962,1.6 -4.2,0.6 -5.8,2.8 -5.6,6.6 0.1,3.1 2.2,5.2 6.1,5.6 4.6,0.5 9.2999996,0.6 13.9999996,0.8 0.0125,0.34453 0,-0.1 0,0 z m 14.5000004,-5.2 v 0.9 h -27.1 c 8.9999996,-0.8 17.9999996,-4.3 27.1,-0.9 z m -2.1000004,-3.4 H -14.520607 c 3.8,-3 19.4999996,-3 23.2999996,0 z"
       id="path21"
       sodipodi:nodetypes="cccccccccccccccc" /></g></g></svg>
