<?xml version="1.0" encoding="UTF-8" standalone="no"?>
<svg
   xmlns:dc="http://purl.org/dc/elements/1.1/"
   xmlns:cc="http://creativecommons.org/ns#"
   xmlns:rdf="http://www.w3.org/1999/02/22-rdf-syntax-ns#"
   xmlns:svg="http://www.w3.org/2000/svg"
   xmlns="http://www.w3.org/2000/svg"
   xmlns:sodipodi="http://sodipodi.sourceforge.net/DTD/sodipodi-0.dtd"
   xmlns:inkscape="http://www.inkscape.org/namespaces/inkscape"
   id="svg"
   fill="#000000"
   stroke="#000000"
   width="200px"
   height="200px"
   version="1.1"
   viewBox="144 144 512 512"
   sodipodi:docname="l.svg"
   inkscape:version="1.0.1 (3bc2e813f5, 2020-09-07)">
  <metadata
     id="metadata28">
    <rdf:RDF>
      <cc:Work
         rdf:about="">
        <dc:format>image/svg+xml</dc:format>
        <dc:type
           rdf:resource="http://purl.org/dc/dcmitype/StillImage" />
        <dc:title></dc:title>
      </cc:Work>
    </rdf:RDF>
  </metadata>
  <defs
     id="defs26" />
  <sodipodi:namedview
     pagecolor="#ffffff"
     bordercolor="#666666"
     borderopacity="1"
     objecttolerance="10"
     gridtolerance="10"
     guidetolerance="10"
     inkscape:pageopacity="0"
     inkscape:pageshadow="2"
     inkscape:window-width="1366"
     inkscape:window-height="746"
     id="namedview24"
     showgrid="false"
     inkscape:zoom="1.8959437"
     inkscape:cx="72.518864"
     inkscape:cy="104.95764"
     inkscape:window-x="-8"
     inkscape:window-y="-8"
     inkscape:window-maximized="1"
     inkscape:current-layer="svg"
     inkscape:document-rotation="0" />
  <g
     id="IconSvg_bgCarrier"
     stroke-width="0" />
  <g
     id="IconSvg_tracerCarrier"
     stroke-linecap="round"
     stroke-linejoin="round"
     stroke="#CCCCCC" />
  <g
     id="g865"
     transform="matrix(1.1092103,0,0,1.1092103,-43.684118,-43.684122)">
    <path
       d="m 269.46595,521.76321 c -3.56991,0 -7.1438,-0.75471 -10.50977,-2.26408 -6.23737,-2.81518 -11.01271,-7.89455 -13.42931,-14.28392 L 206.94914,403.51754 c -2.41589,-6.38907 -2.21226,-13.37719 0.60296,-19.61496 2.81518,-6.23737 7.89455,-11.01272 14.28392,-13.42932 l 138.41286,-52.45786 56.783,149.57584 -138.46396,52.50999 c -2.91904,1.10608 -6.03763,1.66116 -9.10438,1.66116 z m 76.19761,-171.3498 -114.92152,43.65321 c -0.0519,0 -0.19965,0.0519 -0.25156,0.25156 -0.0999,0.19966 -0.0519,0.30349 0,0.3514 l 38.57772,101.69767 c 0,0.0519 0.0519,0.19966 0.25157,0.25157 0.19966,0.0999 0.30349,0.0519 0.3514,0 l 114.92151,-43.60516 z"
       id="path4"
       style="stroke-width:1.02225" />
    <path
       d="m 220.07076,516.43728 c -12.87424,0 -25.0973,-7.8466 -29.92437,-20.62086 l -18.35657,-48.43325 c -6.23737,-16.49608 2.06045,-34.95589 18.56,-41.24172 l 38.92938,-14.78687 41.03829,108.23599 -38.92938,14.78687 c -3.72161,1.40958 -7.5431,2.06444 -11.31633,2.06444 z m -5.43071,-92.64563 -15.39,5.88592 c -3.52196,1.35765 -5.27901,5.27901 -3.97318,8.80097 l 18.35657,48.43325 c 1.35765,3.52197 5.27901,5.27901 8.80097,3.97319 l 15.44111,-5.83399 z"
       id="path6"
       style="stroke-width:1.02225" />
    <path
       d="m 565.85755,501.69641 c -1.00627,0 -2.01261,-0.0999 -3.01881,-0.25156 L 391.58095,471.4203 338.67125,332.00564 446.90724,195.90307 c 3.87342,-4.87961 10.15863,-7.34344 16.29571,-6.38907 6.18544,0.95436 11.36846,5.17914 13.58061,11.01272 l 105.31235,277.58217 c 2.21226,5.83399 1.10608,12.47453 -2.8671,17.25049 -3.31834,4.07705 -8.24988,6.34113 -13.37719,6.34113 z M 409.99487,449.13837 553.78476,474.33483 458.12451,222.20672 367.24022,336.42288 Z"
       id="path8"
       style="stroke-width:1.02225" />
    <path
       d="m 338.57015,610.68887 c -5.58241,0 -10.86551,-3.06676 -13.58061,-8.34975 l -54.01577,-106.22216 94.75352,-35.96281 11.81927,31.13063 c 4.32463,11.46864 2.66746,24.19056 -4.57621,34.10129 l -3.31833,4.57621 22.68171,43.15435 c 2.01261,3.87341 2.31203,8.39759 0.75471,12.47453 -1.5573,4.07306 -4.77984,7.29152 -8.8529,8.8529 l -40.28693,15.28982 c -1.75705,0.65488 -3.56991,0.95436 -5.37878,0.95436 z m -32.49226,-101.04343 37.32036,73.38232 21.47546,-8.14611 -24.69351,-47.07571 12.47453,-17.20245 c 2.21226,-3.01881 2.71531,-6.89222 1.40959,-10.41061 l -2.91904,-7.64296 z"
       id="path10"
       style="stroke-width:1.02225" />
    <path
       d="m 610.02904,295.29361 8.92078,23.51179 -44.62332,16.93461 -8.92078,-23.51178 z"
       id="path12"
       style="stroke-width:1.02225" />
    <path
       d="m 551.84248,215.62955 18.15315,17.40588 -33.0678,34.48872 -18.15314,-17.40588 z"
       id="path14"
       style="stroke-width:1.02225" />
    <path
       d="m 582.67359,388.14471 47.57047,3.86136 -2.03254,25.0656 -47.57047,-3.86135 z"
       id="path16"
       style="stroke-width:1.02225" />
  </g>
</svg>
