<?xml version="1.0" encoding="UTF-8" standalone="no"?>
<svg
   xmlns:dc="http://purl.org/dc/elements/1.1/"
   xmlns:cc="http://creativecommons.org/ns#"
   xmlns:rdf="http://www.w3.org/1999/02/22-rdf-syntax-ns#"
   xmlns:svg="http://www.w3.org/2000/svg"
   xmlns="http://www.w3.org/2000/svg"
   xmlns:sodipodi="http://sodipodi.sourceforge.net/DTD/sodipodi-0.dtd"
   xmlns:inkscape="http://www.inkscape.org/namespaces/inkscape"
   id="svg"
   fill="#000000"
   stroke="#000000"
   width="200px"
   height="200px"
   version="1.1"
   viewBox="144 144 512 512"
   sodipodi:docname="p.svg"
   inkscape:version="1.0.1 (3bc2e813f5, 2020-09-07)">
  <metadata
     id="metadata20">
    <rdf:RDF>
      <cc:Work
         rdf:about="">
        <dc:format>image/svg+xml</dc:format>
        <dc:type
           rdf:resource="http://purl.org/dc/dcmitype/StillImage" />
        <dc:title></dc:title>
      </cc:Work>
    </rdf:RDF>
  </metadata>
  <defs
     id="defs18" />
  <sodipodi:namedview
     pagecolor="#ffffff"
     bordercolor="#666666"
     borderopacity="1"
     objecttolerance="10"
     gridtolerance="10"
     guidetolerance="10"
     inkscape:pageopacity="0"
     inkscape:pageshadow="2"
     inkscape:window-width="1366"
     inkscape:window-height="746"
     id="namedview16"
     showgrid="false"
     inkscape:zoom="1.3918395"
     inkscape:cx="78.920493"
     inkscape:cy="91.374452"
     inkscape:window-x="-8"
     inkscape:window-y="-8"
     inkscape:window-maximized="1"
     inkscape:current-layer="IconSvg_iconCarrier" />
  <g
     id="IconSvg_bgCarrier"
     stroke-width="0" />
  <g
     id="IconSvg_tracerCarrier"
     stroke-linecap="round"
     stroke-linejoin="round"
     stroke="#CCCCCC" />
  <g
     id="IconSvg_iconCarrier"
     transform="matrix(1.1362123,0,0,1.1362123,-22.591496,-29.932659)">
    <g
       id="g12"
       transform="matrix(0.96229375,0,0,1.0000528,-12.981197,-21.627987)">
      <path
         d="M 598.04,220.25 H 201.96 c -19.664,0 -35.605,15.941 -35.605,35.598 v 288.3 c 0,19.66 15.941,35.598 35.605,35.598 h 396.07 c 19.66,0 35.598,-15.941 35.598,-35.598 l 0.004,-288.3 c 0.004,-19.664 -15.938,-35.598 -35.598,-35.598 z m 12.652,331.26 H 189.312 V 279.63 h 421.39 v 271.88 z"
         id="path4" />
      <path
         d="m 328.27,479.05 -97.25,-63.484 97.25,-63.477 7.2969,11.176 -80.117,52.301 80.117,52.309 z"
         id="path6" />
      <path
         d="m 471.73,479.05 -7.3008,-11.176 80.125,-52.309 -80.125,-52.301 7.3008,-11.176 97.25,63.477 z"
         id="path8" />
      <path
         d="m 411.16,312.43 13.16,2.2891 -35.465,203.97 -13.16,-2.2891 z"
         id="path10" />
    </g>
  </g>
</svg>
