<?xml version="1.0" encoding="UTF-8" standalone="no"?>
<svg
   xmlns:dc="http://purl.org/dc/elements/1.1/"
   xmlns:cc="http://creativecommons.org/ns#"
   xmlns:rdf="http://www.w3.org/1999/02/22-rdf-syntax-ns#"
   xmlns:svg="http://www.w3.org/2000/svg"
   xmlns="http://www.w3.org/2000/svg"
   xmlns:sodipodi="http://sodipodi.sourceforge.net/DTD/sodipodi-0.dtd"
   xmlns:inkscape="http://www.inkscape.org/namespaces/inkscape"
   version="1.1"
   id="Слой_1"
   x="0px"
   y="0px"
   viewBox="0 0 243.2 200.8"
   style="enable-background:new 0 0 243.2 200.8;"
   xml:space="preserve"
   sodipodi:docname="t.svg"
   inkscape:version="1.0.1 (3bc2e813f5, 2020-09-07)"><metadata
   id="metadata87"><rdf:RDF><cc:Work
       rdf:about=""><dc:format>image/svg+xml</dc:format><dc:type
         rdf:resource="http://purl.org/dc/dcmitype/StillImage" /></cc:Work></rdf:RDF></metadata><defs
   id="defs85">
	
	
	
	
	
	
	
		
	
	
		
	
		
	
	
	
	
	
	
	
	
	
	
	
	
	
	
	
	
	
	
	
	
	
	
	
	
	
	

		
		
	</defs><sodipodi:namedview
   pagecolor="#ffffff"
   bordercolor="#666666"
   borderopacity="1"
   objecttolerance="10"
   gridtolerance="10"
   guidetolerance="10"
   inkscape:pageopacity="0"
   inkscape:pageshadow="2"
   inkscape:window-width="1366"
   inkscape:window-height="746"
   id="namedview83"
   showgrid="false"
   inkscape:zoom="1.8883901"
   inkscape:cx="132.58938"
   inkscape:cy="129.70991"
   inkscape:window-x="-8"
   inkscape:window-y="-8"
   inkscape:window-maximized="1"
   inkscape:current-layer="Слой_1"
   inkscape:document-rotation="0" />
<style
   type="text/css"
   id="style2">
	.st0{fill:#5B5556;}
	.st1{fill:#383838;}
	.st2{fill:#565859;}
	.st3{fill:#444444;}
	.st4{fill:#5E4444;}
	.st5{fill:#A5625B;}
	.st6{fill:#2E74AA;}
	.st7{fill:#8F5A8C;}
	.st8{fill:#847E7F;}
	.st9{fill:#3778A5;}
	.st10{fill:#969293;}
	.st11{fill:#3A3A3A;}
	.st12{fill:#914D46;}
	.st13{fill:#605F5F;}
	.st14{fill:#474344;}
	.st15{fill:#777575;}
	.st16{fill:#A8468C;}
	.st17{fill:#494B4C;}
	.st18{fill:#726F70;}
	.st19{fill:#686A6B;}
	.st20{fill:#96387A;}
	.st21{fill:#3D85A5;}
	.st22{fill:#9C6A9B;}
	.st23{fill:#1F6193;}
	.st24{fill:#3886BA;}
</style>
<rect
   x="112.26481"
   y="131.98288"
   class="st0"
   width="8.2429066"
   height="34.136383"
   id="rect4"
   style="stroke-width:0.895968" /><rect
   x="158.67596"
   y="62.276558"
   class="st1"
   width="9.497263"
   height="11.557989"
   id="rect6"
   style="stroke-width:0.895968;fill:#474344;fill-opacity:1" /><rect
   x="128.39224"
   y="15.507019"
   class="st2"
   width="71.587852"
   height="46.679939"
   id="rect8"
   style="stroke-width:0.895968;fill:#5b5556;fill-opacity:1" /><path
   class="st3"
   d="m 199.98009,59.588652 c -20.87606,0 -41.75212,0 -62.62817,0 -2.9567,0 -6.00299,0 -8.95969,0 0.89597,0.895968 1.79194,1.791936 2.68791,2.687904 0,-15.589845 0,-31.179691 0,-46.67994 -0.89597,0.895968 -1.79194,1.791936 -2.68791,2.687905 20.87606,0 41.75212,0 62.62818,0 2.95669,0 6.00298,0 8.95968,0 -0.89597,-0.895969 -1.79194,-1.791937 -2.68791,-2.687905 0,15.589846 0,31.179691 0,46.67994 0,3.494276 5.37581,3.494276 5.37581,0 0,-15.589845 0,-31.179691 0,-46.67994 0,-1.433549 -1.25435,-2.687904 -2.6879,-2.687904 -20.87606,0 -41.75212,0 -62.62817,0 -2.9567,0 -6.00299,0 -8.95969,0 -1.43354,0 -2.6879,1.254355 -2.6879,2.687904 0,15.589846 0,31.179691 0,46.67994 0,1.433549 1.25436,2.687905 2.6879,2.687905 20.87606,0 41.75212,0 62.62818,0 2.95669,0 6.00298,0 8.95968,0 3.49427,0 3.49427,-5.375809 0,-5.375809 z"
   id="path10"
   style="stroke-width:0.895968" /><rect
   x="7.9741163"
   y="83.063019"
   class="st4"
   width="54.922848"
   height="63.88253"
   id="rect14"
   style="stroke-width:0.895968;fill:#352217;fill-opacity:1" /><rect
   x="205.3559"
   y="82.167046"
   class="st5"
   width="7.1677451"
   height="107.33698"
   id="rect16"
   style="stroke-width:0.895968;fill:#5d3623;fill-opacity:1" /><path
   class="st6"
   d="m 141.83176,134.1332 c 1.97113,0 3.76306,-1.52314 3.76306,-3.58387 0,0 0,0 0,0 0,-6.36138 -12.81234,-11.55799 -28.58138,-11.55799 -15.76904,0 -28.581385,5.19661 -28.581385,11.55799 0,0 0,0 0,0 0,1.97113 1.70234,3.58387 3.763067,3.58387 z"
   id="path18"
   style="stroke-width:0.895968" /><rect
   x="52.858162"
   y="90.146721"
   transform="rotate(15.028484)"
   class="st7"
   width="15.321102"
   height="41.483452"
   id="rect20"
   style="stroke-width:0.895971;fill:#a8468c;fill-opacity:1" /><ellipse
   transform="rotate(-74.971516)"
   class="st8"
   cx="-97.438034"
   cy="60.580963"
   rx="3.9422719"
   ry="3.852675"
   id="ellipse22"
   style="stroke-width:0.895971;fill:#5b5556;fill-opacity:1" /><rect
   x="70.020607"
   y="86.30159"
   transform="rotate(15.028484)"
   class="st9"
   width="15.321102"
   height="41.483452"
   id="rect24"
   style="stroke-width:0.895971;fill:#2e74aa;fill-opacity:1" /><ellipse
   transform="rotate(-74.971516)"
   class="st10"
   cx="-93.666748"
   cy="77.621162"
   rx="3.9422719"
   ry="3.852675"
   id="ellipse26"
   style="stroke-width:0.895971;fill:#5b5556;fill-opacity:1" /><ellipse
   class="st11"
   cx="163.51419"
   cy="78.583176"
   rx="15.410653"
   ry="5.5550022"
   id="ellipse28"
   style="stroke-width:0.895968;fill:#474344;fill-opacity:1" /><path
   class="st12"
   d="m 63.882528,145.06401 c -18.994524,0 -37.989049,0 -56.9835733,0 0.6271777,0.62718 1.2543554,1.25436 1.8815331,1.88154 0,-21.95122 0,-43.99204 0,-65.94326 -0.6271777,0.627178 -1.2543554,1.254356 -1.8815331,1.881534 18.9945243,0 37.9890493,0 56.9835733,0 -0.627177,-0.627178 -1.254355,-1.254356 -1.881533,-1.881534 0,21.95122 0,43.99204 0,65.94326 0,2.50871 3.852663,2.50871 3.852663,0 0,-21.95122 0,-43.99204 0,-65.94326 0,-1.075161 -0.895968,-1.881533 -1.881533,-1.881533 -18.994524,0 -37.989049,0 -56.9835735,0 -1.0751618,0 -1.8815331,0.895968 -1.8815331,1.881533 0,21.95122 0,43.99204 0,65.94326 0,1.07516 0.8959681,1.88153 1.8815331,1.88153 18.9945245,0 37.9890495,0 56.9835735,0 2.419114,0.0896 2.419114,-3.76307 -0.0896,-3.76307 z"
   id="path30"
   style="stroke-width:0.895968;fill:#5d3623;fill-opacity:1" /><rect
   x="4.390244"
   y="83.063019"
   class="st5"
   width="7.1677451"
   height="107.33698"
   id="rect32"
   style="stroke-width:0.895968;fill:#5d3623;fill-opacity:1" /><rect
   y="77.149628"
   class="st12"
   width="217.89944"
   height="7.7053266"
   id="rect34"
   x="0"
   style="stroke-width:0.895968;fill:#5d3623;fill-opacity:1" /><path
   class="st13"
   d="m 90.134395,183.94903 c 4.569437,-1.34395 9.228472,-2.6879 13.797905,-3.94226 3.22549,-0.89597 6.45097,-1.88153 9.67646,-2.7775 0.98557,-0.26879 2.06073,-0.44799 3.04629,-0.89597 0.89597,-0.35839 1.70234,-0.0896 0.1792,-0.35839 4.74863,0.71678 9.58685,2.9567 14.15629,4.39025 4.74863,1.43355 9.49726,2.95669 14.1563,4.39024 2.32952,0.71678 3.40468,-2.95669 0.98556,-3.67347 -4.74863,-1.43355 -9.49726,-2.95669 -14.15629,-4.39024 -3.31509,-1.07516 -6.71976,-2.06073 -10.03485,-3.13589 -1.34395,-0.44798 -2.95669,-1.25436 -4.39024,-1.34395 -1.43355,-0.0896 -2.95669,0.71677 -4.30065,1.07516 -3.13589,0.89597 -6.27177,1.79194 -9.40766,2.6879 -4.838231,1.43355 -9.766055,2.7775 -14.604283,4.21105 -2.508711,0.71678 -1.523146,4.39025 0.895968,3.76307 z"
   id="path36"
   style="stroke-width:0.895968;fill:#5b5556;fill-opacity:1" /><circle
   class="st14"
   cx="86.550522"
   cy="184.12822"
   r="5.0174217"
   id="circle38"
   style="stroke-width:0.895968" /><circle
   class="st14"
   cx="145.23643"
   cy="184.12822"
   r="5.0174217"
   id="circle40"
   style="stroke-width:0.895968" /><polygon
   class="st14"
   points="137.1,173.1 124.2,173.1 122.1,180.8 139.5,180.8 "
   id="polygon42"
   transform="matrix(0.89596814,0,0,0.89596814,0,10.400001)" /><path
   class="st15"
   d="m 49.367845,11.206372 c -4.748632,4.121454 -9.497263,8.15331 -14.156297,12.185167 -3.404679,2.867098 -6.719761,5.823793 -10.12444,8.690891 -1.612743,1.433549 -4.031857,2.867098 -5.286212,4.569438 -0.985565,1.343952 -0.627178,2.598307 -0.537581,4.21105 0.26879,3.94226 0.447984,7.884519 0.716775,11.737182 0.358387,6.630165 0.806371,13.170732 1.164758,19.800896 0.179194,2.419114 4.031857,2.508711 3.852663,0 -0.358387,-6.271777 -0.716774,-12.63315 -1.164758,-18.904927 -0.268791,-3.852663 -0.447985,-7.705326 -0.716775,-11.557989 0,-0.537581 0.179194,-2.956695 -0.179194,-3.315083 -0.447984,-0.447984 -1.075161,0.716775 -0.179193,0.537581 1.791936,-0.358387 4.748631,-4.121453 6.092583,-5.286212 3.225485,-2.777501 6.450971,-5.555002 9.676456,-8.332503 4.479841,-3.852663 8.959681,-7.705326 13.439522,-11.647586 1.97113,-1.612743 -0.716774,-4.3006473 -2.598307,-2.687905 z"
   id="path44"
   style="stroke-width:0.895968;fill:#5b5556;fill-opacity:1" /><circle
   class="st16"
   cx="21.861622"
   cy="37.368641"
   r="3.3150821"
   id="circle46"
   style="stroke-width:0.895968;fill:#474344;fill-opacity:1" /><polygon
   class="st16"
   points="56.1,0 51,30.1 85.4,4.6 "
   id="polygon48"
   transform="matrix(0.89596814,0,0,0.89596814,0,10.400001)" /><path
   class="st16"
   d="m 45.335988,77.149627 c -1.881533,-3.942259 -11.199602,-6.898954 -19.442509,-6.898954 -8.15331,0 -12.36436,2.956695 -13.170731,6.898954 z"
   id="path50"
   style="stroke-width:0.895968" /><polygon
   class="st18"
   points="124.6,180.8 126.7,191.6 134.5,191.6 136.6,180.8 "
   id="polygon56"
   transform="matrix(0.89596814,0,0,0.89596814,0,10.400001)"
   style="fill:#5b5556;fill-opacity:1" /><circle
   class="st14"
   cx="117.37183"
   cy="185.29298"
   r="5.0174217"
   id="circle58"
   style="stroke-width:0.895968;fill:#444444;fill-opacity:1" /><path
   class="st6"
   d="m 136.90393,112.27158 c 1.79194,0 3.40468,-0.89597 4.39025,-2.23992 5.64459,-7.79492 9.04927,-18.367349 9.04927,-30.104531 0,-23.832753 -14.33549,-43.096068 -32.07566,-43.096068 -17.74016,0 -32.075655,19.352912 -32.075655,43.096068 0,11.737182 3.494276,22.309611 9.049278,30.104531 1.075162,1.43355 2.687905,2.23992 4.390244,2.23992 z"
   id="path70"
   style="stroke-width:0.895968" /><path
   class="st0"
   d="m 121.13489,127.32384 c 0,-0.26879 0.0896,-0.53758 0.0896,-0.80637 V 75.895272 c 0,-2.687904 -2.15032,-4.927825 -4.74863,-4.927825 -2.59831,0 -4.74863,2.239921 -4.74863,4.927825 v 50.622198 c 0,0.26879 0,0.53758 0.0896,0.80637 z"
   id="path74"
   style="stroke-width:0.895968" /><polygon
   class="st14"
   points="136.7,70.8 123.8,70.8 121.6,63 139.1,63 "
   id="polygon76"
   transform="matrix(0.89596814,0,0,0.89596814,0,10.400001)" />
</svg>
